<svg width="112" height="32" viewBox="0 0 112 32" fill="none" xmlns="http://www.w3.org/2000/svg">
<g clip-path="url(#clip0_41705_148)">
<foreignObject x="-20" y="-20" width="152" height="72"><div xmlns="http://www.w3.org/1999/xhtml" style="backdrop-filter:blur(10px);clip-path:url(#bgblur_1_41705_148_clip_path);height:100%;width:100%"></div></foreignObject><path data-figma-bg-blur-radius="20" d="M99 0.5C105.904 0.500001 111.5 6.09644 111.5 13V19C111.5 25.9036 105.904 31.5 99 31.5H13C6.09644 31.5 0.5 25.9036 0.5 19V13C0.5 6.09644 6.09644 0.5 13 0.5H99Z" fill="#606060" fill-opacity="0.5" stroke="url(#paint0_linear_41705_148)"/>
<path d="M9 13C9 9.68629 11.6863 7 15 7H21C24.3137 7 27 9.68629 27 13V19C27 22.3137 24.3137 25 21 25H15C11.6863 25 9 22.3137 9 19V13Z" fill="url(#paint1_linear_41705_148)"/>
<path d="M14 16.5002C14 15.6815 14.2194 14.9126 14.6025 14.2502C14.7408 14.0112 15.0462 13.9295 15.2852 14.0676C15.5241 14.2058 15.6059 14.5112 15.4678 14.7502C15.1703 15.2645 15 15.8619 15 16.5002C15 18.4332 16.567 20.0002 18.5 20.0002C20.433 20.0002 22 18.4332 22 16.5002C22 15.8619 21.8297 15.2645 21.5322 14.7502C21.3941 14.5112 21.4759 14.2058 21.7148 14.0676C21.9538 13.9295 22.2592 14.0112 22.3975 14.2502C22.7806 14.9126 23 15.6815 23 16.5002C23 18.9855 20.9853 21.0002 18.5 21.0002C16.0147 21.0002 14 18.9855 14 16.5002ZM18 17.0002V12.7072L16.9766 13.7307C16.7813 13.9259 16.4648 13.9259 16.2695 13.7307C16.0743 13.5354 16.0743 13.2189 16.2695 13.0236L18.1465 11.1467L18.2246 11.0822C18.4187 10.9541 18.6827 10.9758 18.8535 11.1467L20.7305 13.0236C20.9257 13.2189 20.9257 13.5354 20.7305 13.7307C20.5352 13.9259 20.2187 13.9259 20.0234 13.7307L19 12.7072V17.0002C19 17.2763 18.7761 17.5002 18.5 17.5002C18.2239 17.5002 18 17.2763 18 17.0002Z" fill="white"/>
<path d="M33.596 21V11.2H37.264C38.0947 11.2 38.8087 11.3353 39.406 11.606C40.0033 11.8673 40.4607 12.25 40.778 12.754C41.1047 13.2487 41.268 13.8507 41.268 14.56C41.268 15.2507 41.1047 15.848 40.778 16.352C40.4607 16.8467 40.0033 17.2293 39.406 17.5C38.8087 17.7707 38.0947 17.906 37.264 17.906H34.17L34.632 17.416V21H33.596ZM34.632 17.5L34.17 16.996H37.236C38.216 16.996 38.958 16.786 39.462 16.366C39.9753 15.9367 40.232 15.3347 40.232 14.56C40.232 13.776 39.9753 13.1693 39.462 12.74C38.958 12.3107 38.216 12.096 37.236 12.096H34.17L34.632 11.606V17.5ZM41.4479 21L45.9279 11.2H46.9499L51.4299 21H50.3379L46.2219 11.802H46.6419L42.5259 21H41.4479ZM43.2119 18.382L43.5199 17.542H49.2179L49.5259 18.382H43.2119ZM54.8149 21V17.36L55.0529 18.004L50.8949 11.2H52.0009L55.6549 17.178H55.0669L58.7209 11.2H59.7569L55.5989 18.004L55.8369 17.36V21H54.8149ZM65.2238 21.084C64.4864 21.084 63.8004 20.9627 63.1658 20.72C62.5404 20.468 61.9944 20.118 61.5278 19.67C61.0704 19.2127 60.7111 18.6853 60.4498 18.088C60.1978 17.4813 60.0718 16.8187 60.0718 16.1C60.0718 15.3813 60.1978 14.7233 60.4498 14.126C60.7111 13.5193 61.0704 12.992 61.5278 12.544C61.9944 12.0867 62.5404 11.7367 63.1658 11.494C63.7911 11.242 64.4771 11.116 65.2238 11.116C65.9611 11.116 66.6424 11.242 67.2678 11.494C67.8931 11.7367 68.4344 12.082 68.8918 12.53C69.3584 12.978 69.7178 13.5053 69.9698 14.112C70.2311 14.7187 70.3618 15.3813 70.3618 16.1C70.3618 16.8187 70.2311 17.4813 69.9698 18.088C69.7178 18.6947 69.3584 19.222 68.8918 19.67C68.4344 20.118 67.8931 20.468 67.2678 20.72C66.6424 20.9627 65.9611 21.084 65.2238 21.084ZM65.2238 20.16C65.8118 20.16 66.3531 20.062 66.8478 19.866C67.3518 19.6607 67.7858 19.376 68.1498 19.012C68.5231 18.6387 68.8124 18.2093 69.0178 17.724C69.2231 17.2293 69.3258 16.688 69.3258 16.1C69.3258 15.512 69.2231 14.9753 69.0178 14.49C68.8124 13.9953 68.5231 13.566 68.1498 13.202C67.7858 12.8287 67.3518 12.544 66.8478 12.348C66.3531 12.1427 65.8118 12.04 65.2238 12.04C64.6358 12.04 64.0898 12.1427 63.5858 12.348C63.0818 12.544 62.6431 12.8287 62.2698 13.202C61.9058 13.566 61.6164 13.9953 61.4017 14.49C61.1964 14.9753 61.0938 15.512 61.0938 16.1C61.0938 16.6787 61.1964 17.2153 61.4017 17.71C61.6164 18.2047 61.9058 18.6387 62.2698 19.012C62.6431 19.376 63.0818 19.6607 63.5858 19.866C64.0898 20.062 64.6358 20.16 65.2238 20.16ZM76.6319 21.084C75.3812 21.084 74.3966 20.7247 73.6779 20.006C72.9592 19.2873 72.5999 18.2233 72.5999 16.814V11.2H73.6359V16.772C73.6359 17.9293 73.8972 18.7833 74.4199 19.334C74.9426 19.8847 75.6799 20.16 76.6319 20.16C77.5932 20.16 78.3352 19.8847 78.8579 19.334C79.3806 18.7833 79.6419 17.9293 79.6419 16.772V11.2H80.6499V16.814C80.6499 18.2233 80.2906 19.2873 79.5719 20.006C78.8626 20.7247 77.8826 21.084 76.6319 21.084ZM85.4844 21V12.096H82.0404V11.2H89.9644V12.096H86.5204V21H85.4844ZM94.171 21.084C93.443 21.084 92.743 20.9673 92.071 20.734C91.4084 20.4913 90.895 20.1833 90.531 19.81L90.937 19.012C91.2824 19.348 91.7444 19.6327 92.323 19.866C92.911 20.09 93.527 20.202 94.171 20.202C94.787 20.202 95.2864 20.1273 95.669 19.978C96.061 19.8193 96.3457 19.6093 96.523 19.348C96.7097 19.0867 96.803 18.7973 96.803 18.48C96.803 18.0973 96.691 17.7893 96.467 17.556C96.2524 17.3227 95.9677 17.1407 95.613 17.01C95.2584 16.87 94.8664 16.7487 94.437 16.646C94.0077 16.5433 93.5784 16.436 93.149 16.324C92.7197 16.2027 92.323 16.044 91.959 15.848C91.6044 15.652 91.315 15.3953 91.091 15.078C90.8764 14.7513 90.769 14.3267 90.769 13.804C90.769 13.3187 90.895 12.8753 91.147 12.474C91.4084 12.0633 91.805 11.7367 92.337 11.494C92.869 11.242 93.5504 11.116 94.381 11.116C94.9317 11.116 95.4777 11.1953 96.019 11.354C96.5604 11.5033 97.027 11.7133 97.419 11.984L97.069 12.81C96.649 12.53 96.201 12.3247 95.725 12.194C95.2584 12.0633 94.8057 11.998 94.367 11.998C93.779 11.998 93.2937 12.0773 92.911 12.236C92.5284 12.3947 92.2437 12.6093 92.057 12.88C91.8797 13.1413 91.791 13.44 91.791 13.776C91.791 14.1587 91.8984 14.4667 92.113 14.7C92.337 14.9333 92.6264 15.1153 92.981 15.246C93.345 15.3767 93.7417 15.4933 94.171 15.596C94.6004 15.6987 95.025 15.8107 95.445 15.932C95.8744 16.0533 96.2664 16.212 96.621 16.408C96.985 16.5947 97.2744 16.8467 97.489 17.164C97.713 17.4813 97.825 17.8967 97.825 18.41C97.825 18.886 97.6944 19.3293 97.433 19.74C97.1717 20.1413 96.7704 20.468 96.229 20.72C95.697 20.9627 95.011 21.084 94.171 21.084Z" fill="white"/>
</g>
<defs>
<clipPath id="bgblur_1_41705_148_clip_path" transform="translate(20 20)"><path d="M99 0.5C105.904 0.500001 111.5 6.09644 111.5 13V19C111.5 25.9036 105.904 31.5 99 31.5H13C6.09644 31.5 0.5 25.9036 0.5 19V13C0.5 6.09644 6.09644 0.5 13 0.5H99Z"/>
</clipPath><linearGradient id="paint0_linear_41705_148" x1="56" y1="1" x2="56" y2="16.9075" gradientUnits="userSpaceOnUse">
<stop stop-color="#606060"/>
<stop offset="1" stop-color="#606060" stop-opacity="0"/>
</linearGradient>
<linearGradient id="paint1_linear_41705_148" x1="18" y1="7" x2="18" y2="25" gradientUnits="userSpaceOnUse">
<stop stop-color="#6284F5"/>
<stop offset="1" stop-color="#4462C5"/>
</linearGradient>
<clipPath id="clip0_41705_148">
<rect width="112" height="32" fill="white"/>
</clipPath>
</defs>
</svg>
