<svg preserveAspectRatio="xMidYMid meet" width="20" height="20" viewBox="0 0 20 20" fill="none" xmlns="http://www.w3.org/2000/svg">
<g id="slack 1" clip-path="url(#clip0_0_4)">
<path id="Vector" d="M4.77 12.575C4.77 13.7317 3.88917 14.67 2.80167 14.67C1.715 14.67 0.833333 13.7317 0.833333 12.575C0.833333 11.4183 1.715 10.48 2.80167 10.48H4.77V12.575ZM5.75417 12.575C5.75417 11.4167 6.63583 10.4792 7.72333 10.4792C8.81 10.4792 9.69167 11.4175 9.69167 12.5742V17.8142C9.69167 18.9717 8.81 19.91 7.72333 19.91C6.63583 19.91 5.75417 18.9717 5.75417 17.8142V12.5742V12.575Z" fill="#E01E5A"/>
<path id="Vector_2" d="M7.7225 4.19167C6.63583 4.19167 5.75417 3.25333 5.75417 2.09583C5.75417 0.938333 6.63583 0 7.7225 0C8.81 0 9.69167 0.938333 9.69167 2.09583V4.19167H7.7225ZM7.7225 5.23917C8.81 5.23917 9.69167 6.17833 9.69167 7.335C9.69167 8.49333 8.81 9.43083 7.7225 9.43083H2.80167C1.715 9.43083 0.833333 8.4925 0.833333 7.335C0.833333 6.17833 1.715 5.23917 2.80167 5.23917H7.7225Z" fill="#36C5F0"/>
<path id="Vector_3" d="M15.5967 7.335C15.5967 6.17833 16.4775 5.23917 17.565 5.23917C18.6517 5.23917 19.5333 6.17833 19.5333 7.335C19.5333 8.49333 18.6517 9.43083 17.565 9.43083H15.5967V7.335ZM14.6125 7.335C14.6125 8.49333 13.7308 9.43083 12.6433 9.43083C11.5567 9.43083 10.675 8.4925 10.675 7.335V2.09583C10.675 0.938333 11.5567 0 12.6433 0C13.7308 0 14.6125 0.938333 14.6125 2.09583V7.335Z" fill="#2EB67D"/>
<path id="Vector_4" d="M12.6442 15.7183C13.7308 15.7183 14.6125 16.6567 14.6125 17.8142C14.6125 18.9717 13.7308 19.91 12.6442 19.91C11.5567 19.91 10.675 18.9717 10.675 17.8142V15.7183H12.6442ZM12.6442 14.67C11.5567 14.67 10.675 13.7317 10.675 12.5742C10.675 11.4175 11.5567 10.4783 12.6442 10.4783H17.5642C18.6517 10.4783 19.5325 11.4175 19.5325 12.5742C19.5325 13.7325 18.6517 14.67 17.5642 14.67H12.6442Z" fill="#ECB22E"/>
</g>
<defs>
<clipPath id="clip0_0_4">
<rect width="20" height="20" fill="white"/>
</clipPath>
</defs>
</svg>
